<svg width="23" height="20" viewBox="0 0 23 20" fill="none" xmlns="http://www.w3.org/2000/svg">
<path fill-rule="evenodd" clip-rule="evenodd" d="M22.7482 11.3741C22.7482 14.6684 21.3477 17.6356 19.1096 19.7128C18.9125 18.6925 18.2123 17.4026 17.0091 15.8433L16.6646 15.4061C16.069 14.6723 15.446 13.9602 14.7968 13.2698L14.3372 13.7679C14.043 14.0918 13.7654 14.4068 13.5044 14.7129C12.8168 13.8977 12.1065 13.1007 11.3742 12.3219L10.6764 13.0782C9.88463 13.9497 9.17212 14.779 8.53885 15.5661L8.0158 16.2298C7.83047 16.47 7.65299 16.7059 7.48338 16.9376C7.24168 16.6579 6.99389 16.3832 6.74015 16.1133L6.43003 16.4494C6.07814 16.8368 5.76147 17.2053 5.48001 17.5552L5.24755 17.8502C4.60717 18.6798 4.178 19.3964 3.96003 20C1.5354 17.9141 0 14.8234 0 11.3741C0 5.09236 5.09236 0 11.3741 0C17.6558 0 22.7482 5.09236 22.7482 11.3741ZM14.1809 4.53325C14.257 4.53325 14.33 4.56345 14.3838 4.61722C14.4108 4.64391 14.4321 4.67567 14.4467 4.71066C14.4613 4.74565 14.4688 4.78318 14.4688 4.82108C14.4688 4.85898 14.4613 4.89651 14.4467 4.9315C14.4321 4.96649 14.4108 4.99825 14.3838 5.02494L12.9362 6.47208V8.52984L14.3819 9.97697C14.4327 10.0314 14.4603 10.1034 14.459 10.1778C14.4576 10.2522 14.4275 10.3231 14.3749 10.3757C14.3222 10.4284 14.2513 10.4585 14.1768 10.4598C14.1024 10.4611 14.0304 10.4335 13.976 10.3828L12.5283 8.93565H10.4698L9.02213 10.3828C8.99583 10.411 8.96412 10.4336 8.92889 10.4493C8.89365 10.465 8.85562 10.4734 8.81705 10.4741C8.77848 10.4748 8.74018 10.4677 8.70441 10.4533C8.66864 10.4388 8.63616 10.4173 8.60888 10.3901C8.5816 10.3628 8.5601 10.3303 8.54566 10.2946C8.53121 10.2588 8.52411 10.2205 8.52479 10.182C8.52548 10.1434 8.53392 10.1054 8.54962 10.0702C8.56532 10.035 8.58795 10.0033 8.61617 9.97697L10.0638 8.52792V6.47016L8.61617 5.02303C8.56543 4.9686 8.53781 4.89661 8.53912 4.82222C8.54044 4.74783 8.57058 4.67686 8.62321 4.62425C8.67584 4.57165 8.74683 4.54151 8.82125 4.5402C8.89566 4.53889 8.96768 4.5665 9.02213 4.61722L10.4717 6.06435H12.5302L13.9779 4.61722C14.0317 4.56345 14.1047 4.53325 14.1809 4.53325ZM12.6529 3.51004C12.399 3.73553 12.2065 4.0216 12.0931 4.34157C12.0806 4.37714 12.0751 4.41484 12.0771 4.45251C12.0791 4.49018 12.0885 4.52709 12.1048 4.56113C12.1211 4.59517 12.1439 4.62567 12.1719 4.6509C12.2 4.67612 12.2328 4.69557 12.2684 4.70814C12.3039 4.72071 12.3416 4.72615 12.3793 4.72415C12.417 4.72215 12.4539 4.71275 12.488 4.69649C12.522 4.68022 12.5526 4.65741 12.5778 4.62936C12.603 4.60131 12.6225 4.56856 12.6351 4.53299C12.716 4.30441 12.8535 4.10004 13.0348 3.93894C13.2161 3.77785 13.4353 3.66529 13.6718 3.61175C13.9084 3.55821 14.1547 3.56545 14.3877 3.63278C14.6208 3.70011 14.8329 3.82535 15.0045 3.99681C15.176 4.16827 15.3013 4.38036 15.3686 4.6133C15.436 4.84625 15.4432 5.09245 15.3897 5.32894C15.3361 5.56544 15.2235 5.78452 15.0624 5.96575C14.9012 6.14698 14.6968 6.28446 14.4681 6.36536C14.4041 6.38786 14.3501 6.43228 14.3158 6.49074C14.2814 6.54919 14.2688 6.61793 14.2803 6.68476C14.2918 6.75159 14.3265 6.81221 14.3784 6.85588C14.4303 6.89955 14.496 6.92345 14.5638 6.92335C14.5964 6.9233 14.6288 6.91781 14.6596 6.90708C14.9797 6.79378 15.2658 6.60129 15.4914 6.34756C15.717 6.09382 15.8746 5.78712 15.9495 5.45605C16.0245 5.12497 16.0143 4.78032 15.92 4.45423C15.8257 4.12814 15.6503 3.83124 15.4102 3.59121C15.1701 3.35119 14.8731 3.17587 14.5469 3.08159C14.2207 2.98732 13.8759 2.97717 13.5447 3.05209C13.2135 3.12701 12.9067 3.28456 12.6529 3.51004ZM15.5271 11.285C15.8329 10.9221 16.0004 10.4629 16 9.98846C15.9996 9.57284 15.8706 9.16752 15.6306 8.82813C15.3906 8.48874 15.0514 8.23192 14.6596 8.09292C14.5877 8.06754 14.5087 8.07173 14.4399 8.10458C14.3712 8.13743 14.3183 8.19624 14.2929 8.26807C14.2675 8.33991 14.2717 8.41889 14.3045 8.48763C14.3374 8.55638 14.3962 8.60926 14.4681 8.63464C14.6968 8.71554 14.9012 8.85302 15.0624 9.03425C15.2235 9.21548 15.3361 9.43456 15.3897 9.67106C15.4432 9.90755 15.436 10.1538 15.3686 10.3867C15.3013 10.6196 15.176 10.8317 15.0045 11.0032C14.8329 11.1746 14.6208 11.2999 14.3877 11.3672C14.1547 11.4346 13.9084 11.4418 13.6718 11.3883C13.4353 11.3347 13.2161 11.2221 13.0348 11.0611C12.8535 10.9 12.716 10.6956 12.6351 10.467C12.6097 10.3952 12.5568 10.3364 12.488 10.3035C12.4192 10.2707 12.3402 10.2665 12.2684 10.2919C12.1965 10.3172 12.1377 10.3701 12.1048 10.4389C12.0719 10.5076 12.0677 10.5866 12.0931 10.6584C12.2509 11.1058 12.562 11.483 12.9712 11.7233C13.3805 11.9635 13.8616 12.0513 14.3293 11.9711C14.7971 11.8908 15.2214 11.6478 15.5271 11.285ZM10.3471 11.49C10.601 11.2645 10.7935 10.9784 10.9069 10.6584C10.9323 10.5866 10.9281 10.5076 10.8952 10.4389C10.8623 10.3701 10.8035 10.3172 10.7316 10.2919C10.6598 10.2665 10.5808 10.2707 10.512 10.3035C10.4432 10.3364 10.3903 10.3952 10.3649 10.467C10.284 10.6956 10.1465 10.9 9.96519 11.0611C9.7839 11.2221 9.56474 11.3347 9.32815 11.3883C9.09157 11.4418 8.84528 11.4346 8.61226 11.3672C8.37923 11.2999 8.16706 11.1746 7.99554 11.0032C7.82402 10.8317 7.69873 10.6196 7.63138 10.3867C7.56402 10.1538 7.55678 9.90755 7.61034 9.67106C7.66389 9.43456 7.7765 9.21548 7.93765 9.03425C8.0988 8.85302 8.30325 8.71554 8.53192 8.63464C8.5675 8.62207 8.60026 8.60262 8.62832 8.5774C8.65638 8.55217 8.6792 8.52167 8.69547 8.48763C8.71174 8.45359 8.72114 8.41668 8.72314 8.37901C8.72514 8.34134 8.7197 8.30364 8.70713 8.26807C8.69456 8.2325 8.6751 8.19976 8.64986 8.1717C8.62463 8.14365 8.59412 8.12084 8.56007 8.10458C8.52601 8.08831 8.48909 8.07891 8.4514 8.07691C8.41372 8.07491 8.37601 8.08035 8.34043 8.09292C8.02033 8.20622 7.73416 8.39871 7.50859 8.65244C7.28303 8.90618 7.12542 9.21288 7.05048 9.54395C6.97553 9.87503 6.98568 10.2197 7.07999 10.5458C7.1743 10.8719 7.34968 11.1688 7.58979 11.4088C7.8299 11.6488 8.12691 11.8241 8.45312 11.9184C8.77933 12.0127 9.12411 12.0228 9.4553 11.9479C9.7865 11.873 10.0933 11.7154 10.3471 11.49ZM7.47288 3.71502C7.16712 4.07786 6.99962 4.53713 7 5.01154C6.99988 5.42757 7.12869 5.83342 7.36872 6.17329C7.60875 6.51315 7.94821 6.77033 8.34043 6.90947C8.37121 6.9202 8.40357 6.9257 8.43617 6.92574C8.50529 6.92763 8.57277 6.90453 8.62623 6.86069C8.67968 6.81684 8.71552 6.75519 8.72716 6.68706C8.73881 6.61892 8.72547 6.54888 8.6896 6.48978C8.65374 6.43069 8.59775 6.38651 8.53192 6.36536C8.30325 6.28446 8.0988 6.14698 7.93765 5.96575C7.7765 5.78452 7.66389 5.56544 7.61034 5.32894C7.55678 5.09245 7.56402 4.84625 7.63138 4.6133C7.69873 4.38036 7.82402 4.16827 7.99554 3.99681C8.16706 3.82535 8.37923 3.70011 8.61226 3.63278C8.84528 3.56545 9.09157 3.55821 9.32815 3.61175C9.56474 3.66529 9.7839 3.77785 9.96519 3.93894C10.1465 4.10004 10.284 4.30441 10.3649 4.53299C10.3775 4.56856 10.397 4.60131 10.4222 4.62936C10.4474 4.65741 10.478 4.68022 10.512 4.69649C10.5461 4.71275 10.583 4.72215 10.6207 4.72415C10.6584 4.72615 10.6961 4.72071 10.7316 4.70814C10.7672 4.69557 10.8 4.67612 10.8281 4.6509C10.8561 4.62567 10.8789 4.59517 10.8952 4.56113C10.9115 4.52709 10.9209 4.49018 10.9229 4.45251C10.9249 4.41484 10.9194 4.37714 10.9069 4.34157C10.7491 3.89415 10.438 3.51696 10.0288 3.27673C9.6195 3.0365 9.13844 2.94873 8.67068 3.02894C8.20293 3.10915 7.77863 3.35218 7.47288 3.71502Z" fill="white"/>
</svg>
