<svg width="79" height="69" viewBox="0 0 79 69" fill="none" xmlns="http://www.w3.org/2000/svg">
<path fill-rule="evenodd" clip-rule="evenodd" d="M78.4813 39.2407C78.4813 50.606 73.6495 60.8429 65.928 68.0091C65.2482 64.4889 62.8326 60.0389 58.6814 54.6592L57.4927 53.1508C55.4381 50.6191 53.2888 48.1623 51.0491 45.7804L49.4633 47.4991C48.4483 48.6164 47.4905 49.7031 46.5901 50.7594C44.2179 47.947 41.7672 45.1974 39.2407 42.5105L36.8334 45.1196C34.1018 48.1262 31.6436 50.9873 29.4589 53.7029L27.6543 55.9927C27.0149 56.8212 26.4026 57.6352 25.8174 58.4346C24.9835 57.4697 24.1286 56.5218 23.2532 55.5909L22.1833 56.7505C20.9692 58.0868 19.8767 59.3584 18.9057 60.5653L18.1037 61.583C15.8945 64.4453 14.4138 66.9175 13.6618 68.9998C5.29702 61.8034 0 51.1406 0 39.2407C0 17.5686 17.5686 0 39.2407 0C60.9127 0 78.4813 17.5686 78.4813 39.2407ZM48.924 15.6396C49.1866 15.6396 49.4385 15.7438 49.6243 15.9293C49.7172 16.0214 49.7909 16.1309 49.8412 16.2517C49.8915 16.3724 49.9174 16.5018 49.9174 16.6326C49.9174 16.7634 49.8915 16.8929 49.8412 17.0136C49.7909 17.1343 49.7172 17.2439 49.6243 17.3359L44.6299 22.3286V29.4278L49.6177 34.4204C49.7927 34.6082 49.888 34.8566 49.8835 35.1132C49.879 35.3699 49.775 35.6147 49.5934 35.7962C49.4118 35.9777 49.1669 36.0817 48.9102 36.0862C48.6534 36.0907 48.405 35.9955 48.2171 35.8205L43.2227 30.8279H36.1208L31.1264 35.8205C31.0357 35.9178 30.9263 35.9959 30.8047 36.05C30.6832 36.1042 30.552 36.1333 30.4189 36.1356C30.2858 36.138 30.1537 36.1135 30.0303 36.0637C29.9069 36.0139 29.7948 35.9397 29.7007 35.8456C29.6066 35.7516 29.5324 35.6395 29.4826 35.5162C29.4327 35.3928 29.4083 35.2607 29.4106 35.1277C29.413 34.9947 29.4421 34.8635 29.4962 34.742C29.5504 34.6205 29.6285 34.5111 29.7259 34.4204L34.7203 29.4212V22.322L29.7259 17.3293C29.5508 17.1416 29.4555 16.8932 29.4601 16.6366C29.4646 16.3799 29.5686 16.1351 29.7501 15.9536C29.9317 15.7721 30.1766 15.6681 30.4334 15.6636C30.6901 15.6591 30.9386 15.7543 31.1264 15.9293L36.1274 20.9219H43.2293L48.2237 15.9293C48.4095 15.7438 48.6614 15.6396 48.924 15.6396ZM43.6524 12.1095C42.7768 12.8875 42.1124 13.8744 41.7214 14.9783C41.678 15.101 41.6592 15.2311 41.6661 15.3611C41.673 15.491 41.7055 15.6184 41.7616 15.7358C41.8178 15.8532 41.8965 15.9585 41.9933 16.0455C42.0901 16.1325 42.2031 16.1996 42.3259 16.243C42.4486 16.2863 42.5787 16.3051 42.7088 16.2982C42.8388 16.2913 42.9662 16.2589 43.0836 16.2028C43.2011 16.1467 43.3064 16.068 43.3934 15.9712C43.4805 15.8744 43.5476 15.7614 43.591 15.6387C43.8702 14.8501 44.3447 14.145 44.9701 13.5892C45.5956 13.0335 46.3517 12.6451 47.1679 12.4604C47.9841 12.2757 48.8338 12.3007 49.6378 12.533C50.4417 12.7653 51.1737 13.1974 51.7655 13.7889C52.3572 14.3804 52.7894 15.1121 53.0218 15.9158C53.2542 16.7194 53.2792 17.5688 53.0944 18.3847C52.9096 19.2007 52.5212 19.9565 51.9652 20.5817C51.4092 21.207 50.7039 21.6813 49.915 21.9604C49.6942 22.038 49.508 22.1912 49.3895 22.3929C49.2709 22.5946 49.2275 22.8317 49.2671 23.0623C49.3067 23.2929 49.4266 23.502 49.6056 23.6527C49.7847 23.8033 50.0113 23.8858 50.2453 23.8854C50.3577 23.8853 50.4694 23.8663 50.5756 23.8293C51.6799 23.4384 52.6672 22.7743 53.4454 21.899C54.2236 21.0236 54.7674 19.9655 55.0259 18.8233C55.2845 17.6811 55.2495 16.492 54.9241 15.367C54.5988 14.242 53.9937 13.2177 53.1653 12.3896C52.3369 11.5615 51.3122 10.9566 50.1868 10.6314C49.0614 10.3062 47.8719 10.2711 46.7293 10.5296C45.5867 10.7881 44.5281 11.3316 43.6524 12.1095ZM53.5686 38.9331C54.6235 37.6813 55.2014 36.0968 55.2001 34.4601C55.1988 33.0262 54.7536 31.6278 53.9256 30.4569C53.0976 29.2861 51.9274 28.4 50.5756 27.9205C50.3277 27.8329 50.0551 27.8474 49.8178 27.9607C49.5806 28.074 49.3981 28.2769 49.3105 28.5247C49.2229 28.7726 49.2373 29.045 49.3507 29.2822C49.4641 29.5194 49.667 29.7018 49.915 29.7894C50.7039 30.0685 51.4092 30.5428 51.9652 31.168C52.5212 31.7933 52.9096 32.5491 53.0944 33.365C53.2792 34.1809 53.2542 35.0303 53.0218 35.834C52.7894 36.6376 52.3572 37.3694 51.7655 37.9609C51.1737 38.5524 50.4417 38.9845 49.6378 39.2168C48.8338 39.4491 47.9841 39.4741 47.1679 39.2894C46.3517 39.1047 45.5956 38.7163 44.9701 38.1605C44.3447 37.6048 43.8702 36.8997 43.591 36.1111C43.5034 35.8632 43.3209 35.6603 43.0836 35.547C42.8464 35.4337 42.5738 35.4192 42.3259 35.5068C42.078 35.5944 41.875 35.7768 41.7616 36.014C41.6483 36.2512 41.6338 36.5236 41.7214 36.7715C42.2658 38.3151 43.339 39.6164 44.7509 40.4452C46.1628 41.274 47.8224 41.5768 49.4362 41.3C51.05 41.0233 52.5138 40.1849 53.5686 38.9331ZM35.6977 39.6402C36.5734 38.8623 37.2377 37.8754 37.6287 36.7715C37.7164 36.5236 37.7019 36.2512 37.5885 36.014C37.4752 35.7768 37.2722 35.5944 37.0243 35.5068C36.7763 35.4192 36.5038 35.4337 36.2665 35.547C36.0293 35.6603 35.8467 35.8632 35.7591 36.1111C35.4799 36.8997 35.0055 37.6048 34.38 38.1605C33.7545 38.7163 32.9984 39.1047 32.1822 39.2894C31.366 39.4741 30.5163 39.4491 29.7124 39.2168C28.9084 38.9845 28.1764 38.5524 27.5847 37.9609C26.9929 37.3694 26.5607 36.6376 26.3283 35.834C26.0959 35.0303 26.071 34.1809 26.2557 33.365C26.4405 32.5491 26.829 31.7933 27.385 31.168C27.9409 30.5428 28.6463 30.0685 29.4352 29.7894C29.5579 29.746 29.671 29.6789 29.7678 29.5919C29.8646 29.5049 29.9433 29.3997 29.9994 29.2822C30.0556 29.1648 30.088 29.0374 30.0949 28.9075C30.1018 28.7775 30.083 28.6475 30.0397 28.5247C29.9963 28.402 29.9292 28.2891 29.8421 28.1923C29.755 28.0955 29.6498 28.0168 29.5323 27.9607C29.4148 27.9046 29.2874 27.8721 29.1574 27.8652C29.0274 27.8583 28.8973 27.8771 28.7745 27.9205C27.6702 28.3114 26.6829 28.9755 25.9047 29.8508C25.1265 30.7262 24.5828 31.7843 24.3242 32.9265C24.0656 34.0687 24.1007 35.2578 24.426 36.3828C24.7514 37.5078 25.3565 38.5321 26.1849 39.3602C27.0132 40.1883 28.0379 40.7932 29.1633 41.1184C30.2888 41.4436 31.4783 41.4786 32.6209 41.2202C33.7635 40.9617 34.822 40.4182 35.6977 39.6402ZM25.7815 12.8167C24.7266 14.0685 24.1487 15.653 24.1501 17.2897C24.1496 18.725 24.594 20.1252 25.4221 21.2977C26.2503 22.4703 27.4214 23.3575 28.7745 23.8376C28.8807 23.8746 28.9924 23.8935 29.1049 23.8937C29.3433 23.9002 29.5761 23.8205 29.7606 23.6693C29.945 23.518 30.0686 23.3053 30.1088 23.0702C30.149 22.8352 30.1029 22.5935 29.9792 22.3896C29.8555 22.1858 29.6623 22.0333 29.4352 21.9604C28.6463 21.6813 27.9409 21.207 27.385 20.5817C26.829 19.9565 26.4405 19.2007 26.2557 18.3847C26.071 17.5688 26.0959 16.7194 26.3283 15.9158C26.5607 15.1121 26.9929 14.3804 27.5847 13.7889C28.1764 13.1974 28.9084 12.7653 29.7124 12.533C30.5163 12.3007 31.366 12.2757 32.1822 12.4604C32.9984 12.6451 33.7545 13.0335 34.38 13.5892C35.0055 14.145 35.4799 14.8501 35.7591 15.6387C35.8025 15.7614 35.8696 15.8744 35.9567 15.9712C36.0438 16.068 36.149 16.1467 36.2665 16.2028C36.384 16.2589 36.5114 16.2913 36.6414 16.2982C36.7714 16.3051 36.9015 16.2863 37.0243 16.243C37.147 16.1996 37.26 16.1325 37.3568 16.0455C37.4537 15.9585 37.5324 15.8532 37.5885 15.7358C37.6446 15.6184 37.6771 15.491 37.684 15.3611C37.6909 15.2311 37.6721 15.101 37.6287 14.9783C37.0843 13.4347 36.0112 12.1334 34.5993 11.3046C33.1874 10.4758 31.5277 10.173 29.9139 10.4497C28.3002 10.7265 26.8363 11.5649 25.7815 12.8167Z" fill="url(#paint0_linear_29_1146)"/>
<defs>
<linearGradient id="paint0_linear_29_1146" x1="17.0612" y1="-136.85" x2="212.988" y2="-82.6551" gradientUnits="userSpaceOnUse">
<stop stop-color="#6EF2B7"/>
<stop offset="0.395" stop-color="#282F62"/>
</linearGradient>
</defs>
</svg>
